<svg xmlns="http://www.w3.org/2000/svg" viewBox="0 0 448 512">
<path fill="#facc15" d="M224.1 141c-63.6 0-114.9 
51.3-114.9 114.9s51.3 114.9 114.9 
114.9 114.9-51.3 114.9-114.9S287.7 
141 224.1 141zm0 189.6c-41.1 0-74.7-33.5-74.7-74.7 
s33.5-74.7 74.7-74.7 74.7 33.5 74.7 
74.7-33.6 74.7-74.7 74.7zm146.4-194.3c0 
14.9-12 26.8-26.8 
26.8s-26.8-12-26.8-26.8 12-26.8 
26.8-26.8 26.8 12 26.8 26.8zm76.1 
27.2c-1.7-35.7-9.9-67.3-36.2-93.5S385.7 
25.7 350 
24c-35.7-1.7-142.8-1.7-178.5 
0-35.7 1.7-67.3 9.9-93.5 36.2S25.7 
126.3 24 162c-1.7 35.7-1.7 142.8 0 
178.5 1.7 35.7 9.9 67.3 36.2 93.5 
s57.8 34.5 93.5 36.2c35.7 1.7 142.8 
1.7 178.5 0 35.7-1.7 67.3-9.9 
93.5-36.2 26.3-26.2 34.5-57.8 
36.2-93.5 1.7-35.7 1.7-142.7 
0-178.4zM398.8 388c-7.8 19.6-22.9 
34.7-42.6 42.6-29.5 11.7-99.5 9-132.1 
9s-102.7 2.6-132.1-9c-19.6-7.8-34.7-22.9-42.6-42.6-11.7-29.5-9-99.5-9-132.1 
s-2.6-102.7 9-132.1c7.8-19.6 22.9-34.7 
42.6-42.6 29.5-11.7 99.5-9 132.1-9s102.7-2.6 
132.1 9c19.6 7.8 34.7 22.9 
42.6 42.6 11.7 29.5 9 99.5 9 
132.1s2.7 102.7-9 132.1z"/>
</svg>